<svg viewBox="0 0 200 200" xmlns="http://www.w3.org/2000/svg" fill="none" stroke="#1a1a1a" stroke-width="2.857" stroke-linecap="round" stroke-linejoin="round">
  <g transform="translate(-12.00,-12.00) scale(1.12)">
  <!-- Fundus circle -->
  <circle cx="100" cy="100" r="58"/>

  <!-- Optic nerve head (disc) - temporal/left side -->
  <circle cx="62" cy="98" r="11"/>

  <!-- Superior arcade -->
  <path d="M71 92 C92 68, 124 62, 144 76" stroke-width="2.500"/>
  <!-- Inferior arcade -->
  <path d="M71 104 C92 132, 124 138, 146 126" stroke-width="2.500"/>

  <!-- Two nasal vessels off the disc -->
  <path d="M53 92 C48 87, 47 82, 48 77" stroke-width="1.964"/>
  <path d="M53 106 C48 112, 47 117, 48 122" stroke-width="1.964"/>

  <!-- Uniform hemorrhages filling the whole retina -->
  <circle cx="82" cy="68" r="2.6" fill="#1a1a1a" stroke="none"/>
  <circle cx="76" cy="82" r="2.6" fill="#1a1a1a" stroke="none"/>
  <circle cx="83" cy="102" r="2.6" fill="#1a1a1a" stroke="none"/>
  <circle cx="75" cy="119" r="2.6" fill="#1a1a1a" stroke="none"/>
  <circle cx="81" cy="136" r="2.6" fill="#1a1a1a" stroke="none"/>
  <circle cx="99" cy="67" r="2.6" fill="#1a1a1a" stroke="none"/>
  <circle cx="92" cy="85" r="2.6" fill="#1a1a1a" stroke="none"/>
  <circle cx="100" cy="99" r="2.6" fill="#1a1a1a" stroke="none"/>
  <circle cx="93" cy="119" r="2.6" fill="#1a1a1a" stroke="none"/>
  <circle cx="103" cy="135" r="2.6" fill="#1a1a1a" stroke="none"/>
  <circle cx="120" cy="65" r="2.6" fill="#1a1a1a" stroke="none"/>
  <circle cx="109" cy="82" r="2.6" fill="#1a1a1a" stroke="none"/>
  <circle cx="121" cy="101" r="2.6" fill="#1a1a1a" stroke="none"/>
  <circle cx="108" cy="115" r="2.6" fill="#1a1a1a" stroke="none"/>
  <circle cx="118" cy="136" r="2.6" fill="#1a1a1a" stroke="none"/>
  <circle cx="135" cy="66" r="2.6" fill="#1a1a1a" stroke="none"/>
  <circle cx="126" cy="83" r="2.6" fill="#1a1a1a" stroke="none"/>
  <circle cx="138" cy="102" r="2.6" fill="#1a1a1a" stroke="none"/>
  <circle cx="129" cy="118" r="2.6" fill="#1a1a1a" stroke="none"/>
  <circle cx="138" cy="136" r="2.6" fill="#1a1a1a" stroke="none"/>

  <!-- Blood droplet (leakage) -->
  <path d="M150 150 C150 150, 140 165, 140 173 a10 10 0 0 0 20 0 C160 165, 150 150, 150 150 Z"/>
</g>
</svg>