<svg viewBox="0 0 200 200" xmlns="http://www.w3.org/2000/svg" fill="none" stroke="#1a1a1a" stroke-width="2.424" stroke-linecap="round" stroke-linejoin="round">
  <g transform="translate(-32.00,-32.00) scale(1.32)">
  <!-- Eye almond shape -->
  <path d="M30 100 C55 64, 145 64, 170 100 C145 136, 55 136, 30 100 Z"/>
  <!-- Iris (sized to sit inside the almond) -->
  <circle cx="100" cy="100" r="24"/>
  <!-- Central macula highlight -->
  <circle cx="100" cy="100" r="11"/>
  <!-- Disturbed macula spokes -->
  <line x1="100" y1="89" x2="100" y2="84"/>
  <line x1="100" y1="111" x2="100" y2="116"/>
  <line x1="89" y1="100" x2="84" y2="100"/>
  <line x1="111" y1="100" x2="116" y2="100"/>
  <!-- Wavy distortion lines (metamorphopsia) inside macula -->
  <path d="M94 97 q3 -2.5 6 0 t6 0" stroke-width="1.667"/>
  <path d="M94 103 q3 2.5 6 0 t6 0" stroke-width="1.667"/>
  <!-- Lashes top -->
  <line x1="64" y1="71" x2="60" y2="62"/>
  <line x1="100" y1="65" x2="100" y2="55"/>
  <line x1="136" y1="71" x2="140" y2="62"/>
</g>
</svg>